# xmcd
#
# Track frame offsets: 
#        150
#        12256
#        23619
#        36910
#        49638
#        61130
#        73650
#        85517
#        97418
#        111201
#        122961
#        135736
#        146734
#        159479
#        169835
#        182715
#        193035
#        205329
#        217003
#        228502
#        240776
#
# Disc length: 3378 seconds
#
# Revision: 0
# Processed by: cddbd v1.5.2PL0 Copyright (c) Steve Scherf et al.
# Submitted via: ExactAudioCopyFreeDBPlugin 1.0
#
DISCID=2a0d3015
DTITLE=Ray Charles - The Birth Of A Legend 1949-1952 [CD1)
DYEAR=2005
DGENRE=R&B, Soul, Blues
TTITLE0=I Love You, I Love You
TTITLE1=Confession Blues
TTITLE2=Alone In This City
TTITLE3=Can Anyone Ask For More?
TTITLE4=Let's Have A Ball
TTITLE5=Rockin' Chair Blues
TTITLE6=If I Give You My Love
TTITLE7=Can't You See Darling?
TTITLE8=This Love Of Mine
TTITLE9=How Long Blues
TTITLE10=Blues Before Sunrise
TTITLE11=A Sentimental Blues
TTITLE12=You'll Never Miss The Water
TTITLE13=Ain't That Fine
TTITLE14=Don't Put All Your Dreams In One Basket
TTITLE15=Sittin' On The  Of The World
TTITLE16=I've Had My Fun
TTITLE17=See See Rider
TTITLE18=What Have I Done?
TTITLE19=Honey Honey
TTITLE20=She's On The Ball
EXTD=
EXTT0=
EXTT1=
EXTT2=
EXTT3=
EXTT4=
EXTT5=
EXTT6=
EXTT7=
EXTT8=
EXTT9=
EXTT10=
EXTT11=
EXTT12=
EXTT13=
EXTT14=
EXTT15=
EXTT16=
EXTT17=
EXTT18=
EXTT19=
EXTT20=
PLAYORDER=
